<svg width="38" height="38" viewBox="0 0 38 38" fill="none" xmlns="http://www.w3.org/2000/svg">
<g clip-path="url(#clip0_218_45)">
<path d="M26.7211 0.161573C26.9536 0.296326 27.1334 0.505924 27.2314 0.756124C27.3293 1.00632 27.3395 1.28234 27.2602 1.53907L22.9829 15.4376H30.875C31.1069 15.4375 31.3338 15.5053 31.5276 15.6327C31.7214 15.7601 31.8737 15.9414 31.9657 16.1543C32.0576 16.3673 32.0852 16.6024 32.045 16.8309C32.0048 17.0593 31.8986 17.2709 31.7395 17.4397L12.7395 37.6272C12.5556 37.8227 12.311 37.9501 12.0454 37.9888C11.7799 38.0275 11.5091 37.975 11.2771 37.84C11.0452 37.7051 10.8658 37.4955 10.7682 37.2455C10.6706 36.9955 10.6606 36.7199 10.7397 36.4634L15.0171 22.5626H7.12499C6.89305 22.5627 6.66617 22.4948 6.47235 22.3675C6.27853 22.2401 6.12624 22.0587 6.0343 21.8458C5.94236 21.6329 5.91479 21.3977 5.95498 21.1693C5.99518 20.9409 6.10138 20.7292 6.26049 20.5604L25.2605 0.372948C25.4441 0.17772 25.6884 0.050348 25.9535 0.0115404C26.2187 -0.0272673 26.4893 0.0247723 26.7211 0.159198V0.161573ZM9.87286 20.1876H16.625C16.8108 20.1875 16.9941 20.2311 17.16 20.3148C17.3259 20.3985 17.4699 20.52 17.5803 20.6694C17.6908 20.8189 17.7646 20.9922 17.7958 21.1754C17.8271 21.3586 17.8149 21.5466 17.7602 21.7242L14.5112 32.2763L28.1247 17.8126H21.375C21.1891 17.8126 21.0059 17.769 20.84 17.6853C20.674 17.6016 20.5301 17.4802 20.4196 17.3307C20.3092 17.1812 20.2354 17.0079 20.2042 16.8247C20.1729 16.6415 20.1851 16.4536 20.2397 16.2759L23.4887 5.72382L9.87286 20.1876Z" fill="#F7DC08"/>
</g>
<defs>
<clipPath id="clip0_218_45">
<rect width="38" height="38" fill="white"/>
</clipPath>
</defs>
</svg>
