<svg width="38" height="38" viewBox="0 0 38 38" fill="none" xmlns="http://www.w3.org/2000/svg">
<g clip-path="url(#clip0_77_39)">
<path d="M9.5 18.3774V28.5002H19.6228L17.5117 26.3891H11.6111V20.4886L9.5 18.3774Z" fill="#F7DC08"/>
<path d="M36.8072 34.0838L33.7778 31.0121V33.7777H4.22221V29.3971H6.33332V27.7082H4.22221V20.6888H6.33332V18.9999H4.22221V12.2443H6.33332V10.5555H4.22221V4.6549L21.0478 21.3855V18.4088L3.9161 1.36157C3.76846 1.2127 3.57983 1.11118 3.37426 1.06994C3.1687 1.0287 2.95551 1.04961 2.76187 1.13001C2.56824 1.21041 2.40293 1.34665 2.28703 1.52136C2.17113 1.69608 2.10988 1.90135 2.1111 2.11101V34.8332C2.1111 35.1132 2.22231 35.3817 2.42027 35.5796C2.61822 35.7776 2.88671 35.8888 3.16666 35.8888H36.0578C36.2674 35.89 36.4727 35.8288 36.6474 35.7129C36.8221 35.597 36.9584 35.4317 37.0388 35.238C37.1192 35.0444 37.1401 34.8312 37.0988 34.6256C37.0576 34.4201 36.9561 34.2314 36.8072 34.0838Z" fill="#F7DC08"/>
<path d="M25.3333 31.6667H29.5556C30.1155 31.6667 30.6524 31.4443 31.0483 31.0484C31.4443 30.6525 31.6667 30.1155 31.6667 29.5556V9.18336L29.2389 4.71836C29.0511 4.39306 28.78 4.12374 28.4534 3.93819C28.1268 3.75264 27.7567 3.65757 27.3811 3.6628C26.997 3.66585 26.6211 3.77362 26.2937 3.9745C25.9664 4.17538 25.7 4.46176 25.5233 4.8028L23.2222 9.20447V29.5556C23.2222 30.1155 23.4446 30.6525 23.8406 31.0484C24.2365 31.4443 24.7734 31.6667 25.3333 31.6667ZM25.3333 9.71114L27.3811 5.73169L29.5556 9.72169V25.3334H25.3333V9.71114ZM25.3333 27.0539H29.5556V29.6295H25.3333V27.0539Z" fill="#F7DC08"/>
</g>
<defs>
<clipPath id="clip0_77_39">
<rect width="38" height="38" fill="white"/>
</clipPath>
</defs>
</svg>
