<svg width="38" height="38" viewBox="0 0 38 38" fill="none" xmlns="http://www.w3.org/2000/svg">
<path d="M30.5267 7.80587L27.17 4.4492C25.935 3.2142 23.9242 3.2142 22.6892 4.4492L18.2083 8.93003L21.565 12.2867L24.9217 8.93003L30.5267 14.535C31.4164 13.6413 31.9159 12.4315 31.9159 11.1704C31.9159 9.90936 31.4164 8.6996 30.5267 7.80587ZM8.69251 21.8025C9.62667 22.7367 11.1308 22.7367 12.0492 21.8025L15.96 17.8917L12.6033 14.5192L8.69251 18.43C7.75834 19.3642 7.75834 20.8684 8.69251 21.8025Z" fill="#F7DC08"/>
<path d="M23.8133 12.2868L22.6891 13.411L21.565 14.5351L16.53 9.50014C15.5958 8.55014 14.0916 8.55014 13.1733 9.4843C12.9512 9.70373 12.7748 9.96508 12.6545 10.2532C12.5341 10.5413 12.4721 10.8504 12.4721 11.1626C12.4721 11.4749 12.5341 11.784 12.6545 12.0721C12.7748 12.3602 12.9512 12.6215 13.1733 12.841L18.2083 17.876L17.0841 19.0001L7.01414 29.0701C5.77914 30.3051 5.77914 32.316 7.01414 33.551C8.24914 34.786 10.26 34.786 11.495 33.551L26.0458 19.0001C26.1924 19.1467 26.3664 19.263 26.5579 19.3423C26.7495 19.4217 26.9548 19.4625 27.1621 19.4625C27.3694 19.4625 27.5746 19.4217 27.7662 19.3423C27.9577 19.263 28.1317 19.1467 28.2783 19.0001C28.4249 18.8535 28.5412 18.6795 28.6205 18.488C28.6998 18.2965 28.7407 18.0912 28.7407 17.8839C28.7407 17.6766 28.6998 17.4713 28.6205 17.2798C28.5412 17.0883 28.4249 16.9142 28.2783 16.7676L23.8133 12.2868Z" fill="#F7DC08"/>
</svg>
