<svg width="38" height="38" viewBox="0 0 38 38" fill="none" xmlns="http://www.w3.org/2000/svg">
<path fill-rule="evenodd" clip-rule="evenodd" d="M14.0196 30.4892C14.3201 30.3753 14.5788 30.1727 14.7613 29.9083C14.9439 29.6439 15.0416 29.3302 15.0417 29.0088V27.1088L25.3223 24.0253C25.7339 25.3125 26.8993 26.2412 28.2736 26.2412C29.9915 26.2412 31.384 24.7908 31.384 23.0025C31.384 22.8322 31.3714 22.666 31.3476 22.5037C32.4821 21.8379 33.25 20.5697 33.25 19.1154C33.25 17.6619 32.4829 16.3936 31.3476 15.727C31.372 15.5622 31.3841 15.3957 31.384 15.2291C31.384 13.4407 29.9915 11.9912 28.2736 11.9912C26.9753 11.9912 25.863 12.8192 25.3975 13.9965L15.0417 10.89V8.99074C15.0416 8.66942 14.9439 8.35571 14.7613 8.09129C14.5788 7.82686 14.3201 7.62424 14.0196 7.51033L7.43058 5.0142C7.13098 4.90065 6.80829 4.86154 6.49023 4.90022C6.17217 4.9389 5.86826 5.05422 5.60461 5.23627C5.34095 5.41832 5.12544 5.66166 4.97658 5.94538C4.82772 6.2291 4.74997 6.54472 4.75 6.86512V31.1345C4.74997 31.4549 4.82772 31.7705 4.97658 32.0542C5.12544 32.3379 5.34095 32.5813 5.60461 32.7633C5.86826 32.9454 6.17217 33.0607 6.49023 33.0994C6.80829 33.138 7.13098 33.0989 7.43058 32.9854L14.0196 30.4892ZM6.86929 6.49541C6.80942 6.47275 6.74494 6.46495 6.68139 6.47267C6.61783 6.4804 6.5571 6.50343 6.5044 6.53978C6.45171 6.57613 6.40861 6.62472 6.37882 6.68139C6.34902 6.73805 6.33341 6.8011 6.33333 6.86512V31.1345C6.33341 31.1985 6.34902 31.2615 6.37882 31.3182C6.40861 31.3748 6.45171 31.4234 6.5044 31.4598C6.5571 31.4961 6.61783 31.5192 6.68139 31.5269C6.74494 31.5346 6.80942 31.5268 6.86929 31.5042L13.4583 29.0088V27.5838L10.777 28.389C10.6186 28.4618 10.4571 28.4998 10.2917 28.4998C8.54208 28.4998 7.125 24.2462 7.125 18.9998C7.125 13.7534 8.54208 9.49979 10.2917 9.49979C10.4563 9.49979 10.6178 9.53699 10.7746 9.60983L13.4583 10.415V8.99074L6.86929 6.49541ZM11.0287 25.2167C10.777 25.9712 10.5118 26.4739 10.2917 26.7589C10.0716 26.4739 9.80638 25.9712 9.55463 25.2167C9.04796 23.6983 8.70833 21.5007 8.70833 18.9998C8.70833 16.4989 9.04875 14.3012 9.55463 12.7828C9.80638 12.0284 10.0716 11.5257 10.2917 11.2407C10.5118 11.5257 10.777 12.0284 11.0287 12.7828C11.5354 14.3012 11.875 16.4989 11.875 18.9998C11.875 21.5007 11.5346 23.6983 11.0287 25.2167ZM25.0016 22.1332C24.7214 21.4207 24.5425 20.3337 24.5425 19.1162C24.5425 17.745 24.7689 16.5401 25.1125 15.8482C24.0271 15.9946 22.9583 17.1995 22.9583 18.9998C22.9583 20.7391 23.9558 21.9226 25.0016 22.1332ZM12.3302 11.7291L23.1958 14.9892C22.0645 15.8624 21.375 17.399 21.375 18.9998C21.375 20.5997 22.0653 22.1372 23.1958 23.0104L12.3302 26.2697C13.0197 24.5272 13.4583 21.9171 13.4583 18.9998C13.4583 16.0825 13.0197 13.4716 12.3302 11.7291ZM26.5573 16.5013L26.8399 16.0255L26.7639 15.4777C26.7526 15.3953 26.7471 15.3122 26.7472 15.2291C26.7472 14.2545 27.4906 13.5745 28.2736 13.5745C29.0573 13.5745 29.8007 14.2545 29.8007 15.2291C29.8007 15.3209 29.7944 15.4096 29.7809 15.4951L29.6242 16.5527L30.5465 17.0935C31.1988 17.4758 31.6667 18.2247 31.6667 19.1162C31.6667 20.0068 31.1988 20.7549 30.5465 21.1381L29.6242 21.6788L29.7809 22.7365C29.7944 22.822 29.8007 22.9106 29.8007 23.0025C29.8007 23.977 29.0573 24.657 28.2736 24.657C27.4898 24.657 26.7472 23.977 26.7472 23.0025C26.7472 22.917 26.7528 22.8338 26.7639 22.7539L26.8399 22.206L26.5573 21.7302C26.3855 21.4397 26.125 20.4968 26.125 19.1154C26.125 17.7347 26.3855 16.7918 26.5573 16.5013Z" fill="#F7DC08"/>
</svg>
