<svg width="105" height="27" viewBox="0 0 105 27" fill="none" xmlns="http://www.w3.org/2000/svg">
<path d="M18.7109 0V21.0732H15.674V2.26372H3.03684V21.0732H0V0H18.7109Z" fill="black"/>
<path d="M24.4447 27V5.26829H27.2367V7.77896H27.5795C27.7918 7.50457 28.0857 7.15473 28.4612 6.72942C28.8449 6.29726 29.3918 5.91311 30.1021 5.57698C30.8205 5.23399 31.7919 5.0625 33.0165 5.0625C34.6002 5.0625 35.9962 5.3952 37.2044 6.06059C38.4126 6.72599 39.3555 7.66921 40.033 8.89024C40.7106 10.1113 41.0494 11.5518 41.0494 13.2119C41.0494 14.8857 40.7106 16.3365 40.033 17.5644C39.3555 18.7854 38.4167 19.7321 37.2166 20.4043C36.0166 21.0697 34.6328 21.4024 33.0654 21.4024C31.8572 21.4024 30.8899 21.2344 30.1633 20.8982C29.4367 20.5553 28.8775 20.1677 28.4857 19.7355C28.0938 19.2965 27.7918 18.9329 27.5795 18.6448H27.3346V27H24.4447ZM27.2857 13.1707C27.2857 14.3643 27.4938 15.4173 27.9102 16.3296C28.3265 17.2351 28.9347 17.9451 29.7347 18.4596C30.5347 18.9672 31.5144 19.221 32.6736 19.221C33.8818 19.221 34.89 18.9535 35.6982 18.4184C36.5145 17.8765 37.1268 17.1494 37.535 16.237C37.9513 15.3178 38.1595 14.2957 38.1595 13.1707C38.1595 12.0595 37.9554 11.0579 37.5472 10.1662C37.1472 9.26753 36.539 8.55755 35.7227 8.0362C34.9145 7.508 33.8981 7.2439 32.6736 7.2439C31.498 7.2439 30.5103 7.49428 29.7102 7.99505C28.9102 8.48895 28.3061 9.18178 27.8979 10.0736C27.4897 10.9585 27.2857 11.9909 27.2857 13.1707Z" fill="black"/>
<path d="M73.674 26.4649V0H76.5639V26.4649H73.674ZM73.674 21.4024C72.4005 21.4024 71.2413 21.2104 70.1963 20.8262C69.1514 20.4352 68.2534 19.883 67.5024 19.1696C66.7513 18.4493 66.1717 17.5884 65.7635 16.5869C65.3554 15.5854 65.1513 14.4741 65.1513 13.253C65.1513 12.0183 65.3554 10.9002 65.7635 9.89863C66.1717 8.89024 66.7513 8.02591 67.5024 7.30564C68.2534 6.58536 69.1514 6.03315 70.1963 5.64901C71.2413 5.258 72.4005 5.0625 73.674 5.0625H74.5557V21.4024H73.674ZM73.674 19.221H74.1638V7.2439H73.674C72.7107 7.2439 71.874 7.40854 71.1637 7.7378C70.4535 8.06021 69.8657 8.50267 69.4004 9.06517C68.9432 9.62081 68.6004 10.2588 68.3718 10.979C68.1514 11.6993 68.0412 12.4573 68.0412 13.253C68.0412 14.3095 68.2412 15.2904 68.6412 16.1959C69.0412 17.1014 69.6575 17.8319 70.4902 18.3876C71.3229 18.9432 72.3842 19.221 73.674 19.221ZM76.5639 21.4024H75.6823V5.0625H76.5639C77.8374 5.0625 78.9966 5.258 80.0416 5.64901C81.0865 6.03315 81.9845 6.58536 82.7355 7.30564C83.4866 8.02591 84.0662 8.89024 84.4744 9.89863C84.8826 10.9002 85.0867 12.0183 85.0867 13.253C85.0867 14.4741 84.8826 15.5854 84.4744 16.5869C84.0662 17.5884 83.4866 18.4493 82.7355 19.1696C81.9845 19.883 81.0865 20.4352 80.0416 20.8262C78.9966 21.2104 77.8374 21.4024 76.5639 21.4024ZM76.5639 19.221C77.5354 19.221 78.3721 19.0633 79.0742 18.7477C79.7844 18.4253 80.3681 17.9863 80.8253 17.4306C81.2906 16.8681 81.6335 16.2302 81.8539 15.5168C82.0825 14.7965 82.1968 14.0419 82.1968 13.253C82.1968 12.1966 81.9967 11.2123 81.5967 10.2999C81.1967 9.38758 80.5804 8.65015 79.7477 8.08765C78.915 7.52515 77.8538 7.2439 76.5639 7.2439H76.0741V19.221H76.5639Z" fill="black"/>
<path d="M92.3941 17.4924L101.456 5.26829H104.786V21.0732H101.896V8.84909L92.8839 21.0732H89.5042V5.26829H92.3941V17.4924Z" fill="black"/>
<path d="M46.4439 19.2221C47.0868 21.5833 48.3551 23.5934 50.0356 24.9145C51.716 26.2356 53.7061 26.7871 55.6712 26.4762C57.6363 26.1654 59.4566 25.0112 60.826 23.2077C62.1953 21.4042 63.0302 19.0614 63.1903 16.5732C63.3504 14.0851 62.8259 11.6033 61.705 9.54526C60.5841 7.48722 58.9351 5.97841 57.0354 5.27254C55.1357 4.56667 53.1011 4.70679 51.2737 5.66935C49.4464 6.63191 47.9377 8.35818 47.0013 10.5579L49.0792 11.963C49.7594 10.365 50.8554 9.11092 52.183 8.41166C53.5105 7.71239 54.9886 7.61059 56.3687 8.12339C57.7487 8.63618 58.9466 9.73228 59.7609 11.2274C60.5752 12.7225 60.9563 14.5254 60.84 16.333C60.7237 18.1406 60.1172 19.8425 59.1224 21.1527C58.1276 22.4629 56.8052 23.3014 55.3776 23.5272C53.95 23.753 52.5043 23.3524 51.2835 22.3927C50.0627 21.4329 49.1413 19.9726 48.6742 18.2573L46.4439 19.2221Z" fill="#3F3F3F"/>
<path d="M47.1682 12.0732L51.2313 15.4887L47.1667 18.9029L43.1036 15.4874L47.1682 12.0732Z" fill="#F7DC08"/>
</svg>
